<svg xmlns="http://www.w3.org/2000/svg" viewBox="0 0 452.84 243.71"><defs><style>.cls-1,.cls-2,.cls-3{fill:#bd8b41;}.cls-1,.cls-2{stroke:#bd8b41;stroke-miterlimit:10;}.cls-1{stroke-width:1.39px;}.cls-2{stroke-width:1.02px;}</style></defs><g id="Capa_2" data-name="Capa 2"><g id="Capa_1-2" data-name="Capa 1"><path class="cls-1" d="M180.36,170c-4.54,0-6.54-1-7.93-2.31s-2.39-3.16-2.39-7.09v-36.2c0-3.92.85-5.46,2.16-6.85s3.62-2.54,8.16-2.54h.08c4.47,0,6.86,1.08,8.24,2.54s2.16,2.93,2.16,6.85v5.16h-2.47v-6c0-4-2.23-6.39-7.93-6.39h-.08c-5.54,0-7.85,2.31-7.85,6.39v37.89c0,4.08,2.31,6.39,7.85,6.39h.08c5.62,0,7.93-2.23,7.93-6.39v-6h2.47v5.16c0,3.93-.93,5.7-2.39,7.09s-3.39,2.31-8,2.31Z"/><path class="cls-1" d="M219.72,169.49l-8.93-25.42h-8.86v25.42h-2.47V115.58h12.71A8.54,8.54,0,0,1,218.1,118c1.31,1.38,2.16,2.92,2.16,6.85v9.78c0,4-.93,5.85-2.47,7.24a8.36,8.36,0,0,1-4.62,2l9.25,25.65ZM217.79,124c0-4.08-2.46-6.24-6.54-6.24h-9.32v24.19h9.32c4.08,0,6.54-2.16,6.54-6.24Z"/><path class="cls-1" d="M230.73,169.49V115.58H246.9v2.15H233.2v23h11.55v2.15H233.2v24.49h13.7v2.16Z"/><path class="cls-1" d="M273.94,169.49l-2.39-13.25h-14.1l-2.38,13.25h-2.62l10.09-53.91h4l10.09,53.91Zm-7.94-44-1.31-8.31h-.46l-1.15,8.31-5.24,28.57h13.25Z"/><path class="cls-1" d="M286.87,169.49V117.73h-9.08v-2.15h20.64v2.15h-9.09v51.76Z"/><path class="cls-1" d="M305.66,169.49V115.58h2.47v53.91Z"/><path class="cls-1" d="M325.69,169.49,315.6,115.58h2.7l7.93,44,1.31,8.32H328l1.15-8.32,8-44h2.62l-10.09,53.91Z"/><path class="cls-1" d="M347.41,169.49V115.58h2.46v53.91Z"/><path class="cls-1" d="M361.58,169.49V115.58h12.7a8.54,8.54,0,0,1,5.93,2.39c1.31,1.38,2.16,2.61,2.16,6.85v35.43c0,3.92-.85,5.62-2.31,7a9,9,0,0,1-5.78,2.23ZM379.91,124c0-4.08-2.47-6.24-6.55-6.24H364v49.6h9.32c4.08,0,6.55-2.15,6.55-6.24Z"/><path class="cls-1" d="M410.56,169.49l-2.39-13.25H394.08l-2.39,13.25h-2.62l10.09-53.91h4l10.09,53.91Zm-7.94-44-1.3-8.31h-.47l-1.15,8.31-5.24,28.57h13.25Z"/><path class="cls-1" d="M420.8,169.49V115.58h12.71a8.58,8.58,0,0,1,5.93,2.39c1.3,1.38,2.15,2.61,2.15,6.85v35.43c0,3.92-.85,5.62-2.31,7a9,9,0,0,1-5.77,2.23ZM439.13,124c0-4.08-2.47-6.24-6.55-6.24h-9.32v49.6h9.32c4.08,0,6.55-2.15,6.55-6.24Z"/><path class="cls-1" d="M170.59,232.48V181.39h15.32v2h-13v21.75h11v2h-11v23.21h13v2Z"/><path class="cls-1" d="M220.21,232.48V182.92h-.43l-2.63,13.14-6.72,30.58h-3.94l-6.71-30.58-2.63-13.14h-.44v49.56h-2.33V181.39h4.74l7.45,35.11,1.75,8.61h.44l1.75-8.61L218,181.39h4.6v51.09Z"/><path class="cls-1" d="M233.06,232.48V181.39h12a8.17,8.17,0,0,1,5.62,2.26c1.24,1.32,2,2.78,2,6.5v9.49c0,3.65-.87,5.4-2.26,6.71a8.24,8.24,0,0,1-5.4,2.05h-9.71v24.08Zm17.37-43.13c0-3.87-2.34-5.92-6.2-5.92h-8.84v22.92h8.84c3.86,0,6.2-2,6.2-5.91Z"/><path class="cls-1" d="M279.33,232.48l-8.47-24.08h-8.39v24.08h-2.34V181.39h12.05a8.18,8.18,0,0,1,5.62,2.26c1.24,1.32,2,2.78,2,6.5v9.27c0,3.79-.87,5.55-2.34,6.86a8.06,8.06,0,0,1-4.37,1.9l8.75,24.3Zm-1.83-43.13c0-3.87-2.33-5.92-6.2-5.92h-8.83v22.92h8.83c3.87,0,6.2-2,6.2-5.91Z"/><path class="cls-1" d="M289.76,232.48V181.39h15.33v2h-13v21.75h10.95v2H292.1v23.21h13v2Z"/><path class="cls-1" d="M321.8,233c-4.37,0-6.27-1-7.59-2.19s-2.26-3-2.26-6.71V219.2h2.34v5.69c0,3.87,2.26,6.06,7.51,6.06h.08c5.25,0,7.44-2.19,7.44-6.06v-6.71c0-5.7-1.75-7.08-6.64-10.29l-4-2.63c-4.24-2.78-6.35-5.33-6.35-10.44v-5c0-3.73.8-5.19,2-6.5s3.43-2.41,7.81-2.41h.07c3.87,0,6.06,1,7.37,2.41s2.05,2.77,2.05,6.5v4.88h-2.34V189c0-3.87-2.26-6.06-7.08-6.06h-.07c-5.33,0-7.52,2.19-7.52,6.06v4.6c0,6.2,2,7.44,6.28,10.29l4,2.63c4,2.63,6.72,5.25,6.72,10.36v7.23c0,3.72-.88,5.4-2.26,6.71s-3.14,2.19-7.52,2.19Z"/><path class="cls-1" d="M357.93,232.48l-2.26-12.55H342.31l-2.26,12.55h-2.48l9.56-51.09h3.79l9.56,51.09Zm-7.52-41.67-1.24-7.89h-.44l-1.09,7.89-5,27.07h12.55Z"/><path class="cls-1" d="M386.83,232.48l-8.47-24.08H370v24.08h-2.34V181.39h12.05a8.18,8.18,0,0,1,5.62,2.26c1.24,1.32,2,2.78,2,6.5v9.27c0,3.79-.87,5.55-2.33,6.86a8.12,8.12,0,0,1-4.38,1.9l8.75,24.3ZM385,189.35c0-3.87-2.34-5.92-6.21-5.92H370v22.92h8.83c3.87,0,6.21-2,6.21-5.91Z"/><path class="cls-1" d="M397.26,232.48V181.39h2.34v51.09Z"/><path class="cls-1" d="M427.11,232.48l-2.26-12.55H411.5l-2.27,12.55h-2.48l9.56-51.09h3.8l9.56,51.09Zm-7.51-41.67-1.24-7.89h-.44l-1.1,7.89-5,27.07h12.55Z"/><path class="cls-1" d="M436.82,232.48V181.39h2.34v49.05h13v2Z"/><path class="cls-2" d="M74.57,136.06l-1-5.67h-6l-1,5.67H65.37L69.69,113H71.4l4.32,23.08Zm-3.4-18.82-.56-3.56h-.2l-.49,3.56-2.24,12.23h5.67Z"/><path class="cls-2" d="M89.07,136.06H86.93L81.32,117.3l-1.12-3.62H80v22.38H79V113h2.14l5.6,18.76,1.09,3.63H88V113h1.06Zm-1.42-27.63c-.4.93-1,2.11-2.14,2.11a2.35,2.35,0,0,1-1.42-.56l-.3-.19a2.65,2.65,0,0,0-1.32-.63c-.59,0-.92.69-1.41,1.55l-.73-.36c.4-.93,1-2.11,2.14-2.11a2.35,2.35,0,0,1,1.42.56l.3.19a2.65,2.65,0,0,0,1.32.63c.59,0,.92-.69,1.42-1.55Z"/><path class="cls-2" d="M98.13,136.29c-1.94,0-2.8-.43-3.39-1a3.66,3.66,0,0,1-1-3v-15.5a3.66,3.66,0,0,1,.93-2.93c.59-.63,1.55-1.09,3.49-1.09h0c1.92,0,2.94.46,3.53,1.09a3.66,3.66,0,0,1,.92,2.93v15.5a3.66,3.66,0,0,1-1,3c-.59.56-1.45,1-3.43,1Zm3.43-19.88c0-1.71-1-2.73-3.4-2.73h0c-2.37,0-3.36,1-3.36,2.73v16.22c0,1.75,1,2.74,3.36,2.74h0c2.41,0,3.4-1,3.4-2.74Z"/><path class="cls-2" d="M111,136.29c-2,0-2.83-.43-3.42-1a3.66,3.66,0,0,1-1-3v-2.21h1.06v2.57c0,1.75,1,2.74,3.39,2.74h0c2.37,0,3.36-1,3.36-2.74v-3c0-2.57-.79-3.2-3-4.65l-1.81-1.19c-1.91-1.25-2.87-2.4-2.87-4.71v-2.28a3.66,3.66,0,0,1,.92-2.93c.6-.63,1.55-1.09,3.53-1.09h0a4.3,4.3,0,0,1,3.33,1.09,3.66,3.66,0,0,1,.93,2.93V119h-1.06v-2.57c0-1.75-1-2.73-3.2-2.73h0c-2.41,0-3.4,1-3.4,2.73v2.08c0,2.8.89,3.36,2.84,4.65l1.81,1.18c1.82,1.19,3,2.38,3,4.68v3.27a3.66,3.66,0,0,1-1,3c-.59.56-1.41,1-3.39,1Z"/><rect class="cls-3" x="24.89" y="119.99" width="243.71" height="3.73" transform="translate(268.6 -24.89) rotate(90)"/><path class="cls-3" d="M0,177.86c27.37-17,40.3-29.46,40.3-43.35,0-10.7-6.54-14.17-15.57-14.17A40.52,40.52,0,0,0,1.53,128V116c4.86-5.28,13.06-10.56,26.82-10.56,16.81,0,30.43,7.64,30.43,28.62,0,19.18-17.65,34.74-47.94,48.77V183H45.58v-9.59H60V196.2H0Z"/><path class="cls-3" d="M57.12,227.62v-12c5.42,3.75,11.67,7.23,23.62,7.23s18.62-5.28,18.62-15.43c0-10.42-6.11-15.28-19.73-15.28a44,44,0,0,0-18.48,3.61H60V146.61h54.33v23.21H99.64v-9.17H74.35V182.6a45.38,45.38,0,0,1,12.51-1.8c21,0,31,11,31,27.92s-12.64,28.07-33.9,28.07C67.82,236.79,61.15,232.07,57.12,227.62Z"/></g></g></svg>